<?xml version="1.0" encoding="iso-8859-1"?>
<!-- Generator: Adobe Illustrator 19.0.0, SVG Export Plug-In . SVG Version: 6.00 Build 0)  -->
<svg version="1.1" id="Capa_1" xmlns="http://www.w3.org/2000/svg" xmlns:xlink="http://www.w3.org/1999/xlink" x="0px" y="0px"
	 viewBox="0 0 512 512" style="enable-background:new 0 0 512 512;" xml:space="preserve">
<g>
	<g transform="translate(1 1)">
		<path style="fill:#9E9E9E;" d="M451.268,67.267l-0.002,315.051c0.18,19.036-15.097,34.619-34.133,34.816H41.667
			c-19.036-0.197-34.313-15.78-34.133-34.816L7.532,67.267H451.268z"/>
		<path style="fill:#F5F5F5;" d="M425.668,67.267l-0.002,315.051c0.18,19.036-15.097,34.619-34.133,34.816H41.667
			c-19.036-0.197-34.313-15.78-34.133-34.816L7.532,67.267H425.668z"/>
		<path style="fill:#6A1B9A;" d="M451.267,41.667V75.8H7.533V41.667c0-18.851,15.282-34.133,34.133-34.133h375.467
			C435.985,7.533,451.267,22.815,451.267,41.667z"/>
		<path style="fill:#9D27B0;" d="M425.667,41.667V75.8H7.533V41.667c0-18.851,15.282-34.133,34.133-34.133h349.867
			C410.385,7.533,425.667,22.815,425.667,41.667z"/>
		<path style="fill:#558B30;" d="M502.467,323.267v128c0,28.277-22.923,51.2-51.2,51.2H331.8c-28.277,0-51.2-22.923-51.2-51.2v-128
			c0-4.713,3.821-8.533,8.533-8.533h204.8C498.646,314.733,502.467,318.554,502.467,323.267z"/>
		<g>
			<path style="fill:#8BC34A;" d="M476.867,323.267v128c0,28.277-22.923,51.2-51.2,51.2H331.8c-28.277,0-51.2-22.923-51.2-51.2v-128
				c0-4.713,3.821-8.533,8.533-8.533h179.2C473.046,314.733,476.867,318.554,476.867,323.267z"/>
			<rect x="58.733" y="127" style="fill:#8BC34A;" width="85.333" height="85.333"/>
			<rect x="58.733" y="272.067" style="fill:#8BC34A;" width="85.333" height="85.333"/>
		</g>
		<circle style="fill:#558B30;" cx="391.533" cy="391.533" r="17.067"/>
	</g>
	<g>
		<path d="M51.2,51.2h8.533c4.713,0,8.533-3.821,8.533-8.533s-3.821-8.533-8.533-8.533H51.2c-4.713,0-8.533,3.821-8.533,8.533
			S46.487,51.2,51.2,51.2z"/>
		<path d="M93.867,51.2h8.533c4.713,0,8.533-3.821,8.533-8.533s-3.821-8.533-8.533-8.533h-8.533c-4.713,0-8.533,3.821-8.533,8.533
			S89.154,51.2,93.867,51.2z"/>
		<path d="M136.533,51.2h8.533c4.713,0,8.533-3.821,8.533-8.533s-3.821-8.533-8.533-8.533h-8.533c-4.713,0-8.533,3.821-8.533,8.533
			S131.821,51.2,136.533,51.2z"/>
		<path d="M179.2,51.2h230.4c4.713,0,8.533-3.821,8.533-8.533s-3.821-8.533-8.533-8.533H179.2c-4.713,0-8.533,3.821-8.533,8.533
			S174.487,51.2,179.2,51.2z"/>
		<path d="M494.933,307.2H486.4v-42.667c-0.007-23.893-9.168-46.876-25.6-64.222V42.667C460.772,19.114,441.686,0.028,418.133,0
			H42.667C19.114,0.028,0.028,19.114,0,42.667V384c0.028,23.552,19.114,42.638,42.667,42.667h230.4v25.6
			c0.038,32.974,26.759,59.696,59.733,59.733h119.467c32.974-0.038,59.696-26.759,59.733-59.733v-128
			C512,314.841,504.359,307.2,494.933,307.2z M469.333,307.2h-153.6v-42.667c0-42.415,34.385-76.8,76.8-76.8s76.8,34.385,76.8,76.8
			V307.2z M42.667,17.067h375.467c14.138,0,25.6,11.462,25.6,25.6v25.6H17.067v-25.6C17.067,28.528,28.528,17.067,42.667,17.067z
			 M17.067,384V85.333h426.667v100.625c-28.829-18.858-65.678-20.386-95.969-3.979c-30.291,16.407-49.143,48.105-49.098,82.554
			V307.2h-8.533c-9.426,0-17.067,7.641-17.067,17.067V409.6h-230.4C28.528,409.6,17.067,398.138,17.067,384z M452.267,494.933H332.8
			c-20.268-0.026-37.731-14.281-41.813-34.133h24.747c4.713,0,8.533-3.82,8.533-8.533s-3.821-8.533-8.533-8.533h-25.6v-17.067h25.6
			c4.713,0,8.533-3.82,8.533-8.533s-3.821-8.533-8.533-8.533h-25.6v-17.067h25.6c4.713,0,8.533-3.82,8.533-8.533
			s-3.821-8.533-8.533-8.533h-25.6V358.4h25.6c4.713,0,8.533-3.821,8.533-8.533c0-4.713-3.821-8.533-8.533-8.533h-25.6v-17.067
			h204.8v17.067h-25.6c-4.713,0-8.533,3.821-8.533,8.533c0,4.713,3.821,8.533,8.533,8.533h25.6v17.067h-25.6
			c-4.713,0-8.533,3.821-8.533,8.533s3.821,8.533,8.533,8.533h25.6V409.6h-25.6c-4.713,0-8.533,3.82-8.533,8.533
			s3.821,8.533,8.533,8.533h25.6v17.067h-25.6c-4.713,0-8.533,3.82-8.533,8.533s3.821,8.533,8.533,8.533h24.747
			C489.997,480.652,472.534,494.908,452.267,494.933z"/>
		<path d="M392.533,366.933c-12.454-0.024-23.109,8.939-25.219,21.212c-2.11,12.274,4.939,24.28,16.686,28.418V435.2
			c0,4.713,3.82,8.533,8.533,8.533s8.533-3.821,8.533-8.533v-18.637c11.747-4.137,18.796-16.144,16.686-28.418
			C415.642,375.872,404.987,366.91,392.533,366.933z M392.533,401.067c-4.713,0-8.533-3.82-8.533-8.533s3.82-8.533,8.533-8.533
			s8.533,3.82,8.533,8.533S397.246,401.067,392.533,401.067z"/>
		<path d="M145.067,170.667c-4.713,0-8.533,3.821-8.533,8.533v25.6H68.267v-68.267H102.4c4.713,0,8.533-3.821,8.533-8.533
			c0-4.713-3.821-8.533-8.533-8.533H68.267c-9.426,0-17.067,7.641-17.067,17.067V204.8c0,9.426,7.641,17.067,17.067,17.067h68.267
			c9.426,0,17.067-7.641,17.067-17.067v-25.6C153.6,174.487,149.779,170.667,145.067,170.667z"/>
		<path d="M91.366,156.1c-3.348-3.234-8.671-3.188-11.962,0.104s-3.338,8.614-0.104,11.962l17.067,17.067
			c1.6,1.6,3.77,2.5,6.033,2.5h0.384c2.394-0.107,4.633-1.215,6.17-3.055l42.667-51.2c1.954-2.341,2.511-5.547,1.46-8.411
			c-1.051-2.863-3.549-4.948-6.554-5.47c-3.005-0.522-6.06,0.599-8.014,2.941l-36.693,44.032L91.366,156.1z"/>
		<path d="M145.067,315.733c-4.713,0-8.533,3.821-8.533,8.533v25.6H68.267V281.6H102.4c4.713,0,8.533-3.82,8.533-8.533
			s-3.821-8.533-8.533-8.533H68.267c-9.426,0-17.067,7.641-17.067,17.067v68.267c0,9.426,7.641,17.067,17.067,17.067h68.267
			c9.426,0,17.067-7.641,17.067-17.067v-25.6C153.6,319.554,149.779,315.733,145.067,315.733z"/>
		<path d="M91.366,301.167c-3.348-3.234-8.671-3.188-11.962,0.104c-3.292,3.292-3.338,8.614-0.104,11.962L96.367,330.3
			c1.6,1.6,3.77,2.5,6.033,2.5h0.384c2.394-0.107,4.633-1.215,6.17-3.055l42.667-51.2c1.954-2.341,2.511-5.547,1.46-8.41
			c-1.051-2.863-3.549-4.948-6.554-5.47s-6.06,0.599-8.014,2.941l-36.693,44.032L91.366,301.167z"/>
		<path d="M187.733,145.067H256c4.713,0,8.533-3.821,8.533-8.533S260.713,128,256,128h-68.267c-4.713,0-8.533,3.821-8.533,8.533
			S183.021,145.067,187.733,145.067z"/>
		<path d="M187.733,187.733h110.933c4.713,0,8.533-3.82,8.533-8.533s-3.82-8.533-8.533-8.533H187.733
			c-4.713,0-8.533,3.821-8.533,8.533S183.021,187.733,187.733,187.733z"/>
		<path d="M256,273.067h-68.267c-4.713,0-8.533,3.82-8.533,8.533s3.821,8.533,8.533,8.533H256c4.713,0,8.533-3.821,8.533-8.533
			S260.713,273.067,256,273.067z"/>
		<path d="M247.467,315.733h-59.733c-4.713,0-8.533,3.821-8.533,8.533s3.821,8.533,8.533,8.533h59.733
			c4.713,0,8.533-3.82,8.533-8.533S252.18,315.733,247.467,315.733z"/>
	</g>
</g>
<g>
</g>
<g>
</g>
<g>
</g>
<g>
</g>
<g>
</g>
<g>
</g>
<g>
</g>
<g>
</g>
<g>
</g>
<g>
</g>
<g>
</g>
<g>
</g>
<g>
</g>
<g>
</g>
<g>
</g>
</svg>
