<svg id="Layer_1" enable-background="new 0 0 512 512" height="512" viewBox="0 0 512 512" width="512" xmlns="http://www.w3.org/2000/svg"><g><g><g><path d="m237.105 466.719c-61.224 0-118.781-23.86-162.071-67.183-43.284-43.319-67.122-100.912-67.122-162.171s23.838-118.852 67.122-162.169c43.29-43.324 100.847-67.183 162.071-67.183 61.223 0 118.781 23.86 162.071 67.183 43.284 43.318 67.122 100.911 67.122 162.17s-23.838 118.851-67.122 162.17c-43.29 43.323-100.848 67.183-162.071 67.183z" fill="#ffe66b"/><path d="m399.177 75.196c-43.291-43.324-100.85-67.184-162.072-67.184-5.021 0-10.016.164-14.982.482 55.586 3.566 107.35 26.93 147.09 66.701 43.284 43.319 67.122 100.911 67.122 162.17s-23.838 118.852-67.122 162.17c-39.74 39.771-91.505 63.136-147.09 66.701 4.966.319 9.961.482 14.982.482 61.223 0 118.781-23.86 162.071-67.183 43.284-43.318 67.122-100.911 67.122-162.17s-23.838-118.852-67.121-162.169z" fill="#ffdc30"/><g><ellipse cx="237.105" cy="237.365" fill="#fff" rx="199.186" ry="199.344"/><g><path d="m386.629 323.761-15.04-8.689" fill="#ffe66b"/></g><g><g fill="#ffe66b"><path d="m237.105 251.829c-8.172 0-14.797-6.625-14.797-14.797v-113.385c0-8.172 6.625-14.797 14.797-14.797s14.797 6.625 14.797 14.797v113.386c0 8.171-6.625 14.796-14.797 14.796z"/><path d="m128.899 237.365c0-8.172 6.625-14.797 14.797-14.797h93.41c8.172 0 14.797 6.625 14.797 14.797s-6.625 14.797-14.797 14.797h-93.41c-8.173 0-14.797-6.625-14.797-14.797z"/></g><ellipse cx="237.105" cy="237.365" fill="#ff815c" rx="29.757" ry="29.781"/></g></g></g><g><path d="m491.172 383.977-123.498-71.358c-17.517-10.122-39.423 2.52-39.423 22.751v142.717c0 20.231 21.905 32.874 39.423 22.751l123.498-71.358c17.507-10.115 17.507-35.387 0-45.503z" fill="#3498ac"/><path d="m383.751 383.977-123.498-71.358c-17.517-10.122-39.423 2.52-39.423 22.751v142.717c0 20.231 21.905 32.874 39.423 22.751l123.498-71.358c17.507-10.115 17.507-35.387 0-45.503z" fill="#3498ac"/><path d="m383.751 383.977-123.498-71.358c-9.447-5.459-20.169-4.294-28.045 1.109l121.58 70.25c17.507 10.116 17.507 35.388 0 45.503l-121.58 70.25c7.875 5.402 18.597 6.568 28.045 1.109l123.498-71.358c17.507-10.117 17.507-35.389 0-45.505z" fill="#288a9a"/></g></g><g><path d="m237.105 89.443c4.137 0 7.491-3.354 7.491-7.491v-17.38c0-9.373-14.982-9.801-14.982 0v17.38c0 4.137 3.354 7.491 7.491 7.491z"/><path d="m152.971 106.517c4.686 8.125 17.873 1.001 12.977-7.486l-8.682-15.052c-4.684-8.12-17.875-1.004-12.977 7.486z"/><path d="m106.367 153.173-15.04-8.689c-8.116-4.689-15.981 8.069-7.495 12.972l15.04 8.689c8.111 4.685 15.987-8.066 7.495-12.972z"/><path d="m89.306 237.365c0-4.137-3.354-7.491-7.491-7.491h-17.365c-9.373 0-9.801 14.982 0 14.982h17.366c4.136 0 7.49-3.354 7.49-7.491z"/><path d="m98.873 308.586-15.04 8.689c-8.12 4.691-.986 17.872 7.495 12.972l15.04-8.689c8.116-4.689.992-17.874-7.495-12.972z"/><path d="m163.202 365.469c-3.582-2.067-8.164-.839-10.231 2.746l-8.682 15.051c-4.682 8.116 8.075 15.986 12.977 7.486l8.682-15.051c2.068-3.584.838-8.166-2.746-10.232z"/><path d="m409.761 229.875h-17.366c-9.374 0-9.801 14.982 0 14.982h17.366c9.373-.001 9.801-14.982 0-14.982z"/><path d="m393.115 147.222c-2.069-3.584-6.653-4.807-10.233-2.739l-15.04 8.689c-8.12 4.691-.986 17.872 7.495 12.972l15.04-8.689c3.581-2.069 4.807-6.651 2.738-10.233z"/><path d="m327.176 81.234c-3.585-2.068-8.165-.838-10.231 2.746l-8.682 15.052c-4.683 8.116 8.074 15.986 12.976 7.486l8.682-15.052c2.067-3.584.839-8.164-2.745-10.232z"/><path d="m259.392 207.52v-83.874c0-12.289-9.998-22.287-22.288-22.287-12.289 0-22.287 9.998-22.287 22.287v83.873c-2.862 2.145-5.407 4.693-7.551 7.559h-63.572c-12.29 0-22.288 9.998-22.288 22.288 0 12.289 9.998 22.287 22.288 22.287h63.572c6.799 9.091 17.643 14.985 29.837 14.985 35.915-.223 50.637-45.866 22.289-67.118zm-58.812 37.151h-56.884c-9.672-.344-9.664-14.27 0-14.611h56.884c-.959 4.699-.959 9.912 0 14.611zm29.22-121.025c.342-9.664 14.268-9.671 14.611 0v77.171c-4.812-.962-9.8-.962-14.611 0zm7.305 136.01c-12.278 0-22.267-10-22.267-22.29 1.223-29.572 43.315-29.563 44.533 0 0 12.29-9.988 22.29-22.266 22.29z"/><path d="m494.919 377.491-49.036-28.333c113.456-222.309-137.257-445.15-344.353-306.004-3.386 2.377-4.204 7.049-1.827 10.435 2.378 3.387 7.051 4.204 10.435 1.827 193.746-130.311 428.538 78.38 322.764 286.243l-13.086-7.561c73.14-135.35-28.679-304.903-182.716-303.565-113.96-.001-206.675 92.784-206.675 206.834-1.854 102.306 81.284 195.58 182.911 205.468v15.127c-184.316-19.767-264.308-246.453-133.004-377.472 2.924-2.926 2.922-7.67-.004-10.593-2.926-2.924-7.67-2.922-10.593.004-140.744 140.512-53.976 383.28 143.605 403.122v5.065c0 25.425 28.378 42.112 50.661 29.237l56.761-32.797c-.425 26.178 25.78 47.172 50.661 32.798l68.617-39.648c8.117-4.689.992-17.875-7.495-12.972l-68.617 39.647c-12.277 7.093-28.184-2.185-28.184-16.265v-12.217l51.754-29.904c22.422-12.955 21.63-45.337 0-58.474l-51.754-29.904v-12.216c0-14.09 15.908-23.358 28.184-16.265l123.497 71.357c12.259 7.084 12.266 25.444 0 32.531l-21.298 12.307c-8.12 4.691-.985 17.873 7.495 12.971l21.298-12.306c22.121-12.783 22.119-45.696-.001-58.477zm-114.916 12.972c12.223 7.131 12.328 25.407 0 32.531l-123.498 71.358c-12.276 7.094-28.183-2.186-28.183-16.265v-142.717c0-14.09 15.907-23.358 28.183-16.265zm-8.581-84.33c-24.152-13.958-51.741 6.582-50.661 32.797l-56.761-32.798c-22.217-12.837-50.661 3.701-50.661 29.237v92.381c-93.509-9.979-169.637-96.12-167.929-190.387-.001-105.786 85.994-191.851 191.695-191.851 142.61-1.232 237.107 155.563 169.726 281.081z"/></g></g></svg>