<?xml version="1.0" encoding="iso-8859-1"?>
<!-- Generator: Adobe Illustrator 21.0.0, SVG Export Plug-In . SVG Version: 6.00 Build 0)  -->
<svg version="1.1" id="Capa_1" xmlns="http://www.w3.org/2000/svg" xmlns:xlink="http://www.w3.org/1999/xlink" x="0px" y="0px"
	 viewBox="0 0 591.146 591.146" style="enable-background:new 0 0 591.146 591.146;" xml:space="preserve">
<g>
	<g>
		<g id="filled_outline_10_">
			<path style="fill:#4398D1;" d="M581.293,78.819c0-21.764-17.646-39.41-39.41-39.41H49.262c-21.764,0-39.41,17.646-39.41,39.41
				v295.573h571.441V78.819z"/>
			<path style="fill:#DADDDF;" d="M9.852,374.392v29.557c0,21.764,17.646,39.41,39.41,39.41h492.622
				c21.764,0,39.41-17.646,39.41-39.41v-29.557H9.852z"/>
			<path style="fill:#3E8CC7;" d="M541.884,39.41h-49.262L157.639,374.392h423.655V78.819
				C581.293,57.055,563.648,39.41,541.884,39.41z"/>
			<polygon style="fill:#DADDDF;" points="362.747,541.884 344.835,443.359 246.311,443.359 228.399,541.884 197.049,541.884 
				197.049,561.589 394.097,561.589 394.097,541.884 			"/>
			<path style="fill:#FDB62F;" d="M169.895,277.188L285.72,103.451c3.606-5.439,10.946-6.926,16.385-3.32
				c1.32,0.877,2.443,2,3.32,3.32l115.825,173.738c3.626,5.429,2.158,12.769-3.271,16.394c-1.951,1.301-4.237,1.99-6.581,1.99
				h-231.67c-6.532,0-11.823-5.291-11.823-11.823C167.905,281.415,168.595,279.129,169.895,277.188z"/>
			<rect x="285.72" y="157.639" style="fill:#126099;" width="19.705" height="68.967"/>
			<rect x="285.72" y="246.311" style="fill:#126099;" width="19.705" height="19.705"/>
			<polygon style="fill:#C7CACC;" points="350.205,472.917 344.835,443.359 246.311,443.359 240.941,472.917 			"/>
			<path d="M541.884,29.557H49.262C22.069,29.587,0.03,51.627,0,78.819v325.13c0.03,27.193,22.069,49.233,49.262,49.262h185.226
				l-16.128,88.672h-21.311v19.705h197.049v-19.705h-21.331l-16.109-88.672h185.226c27.193-0.03,49.233-22.069,49.262-49.262V78.819
				C591.116,51.627,569.076,29.587,541.884,29.557z M19.705,78.819c0-16.325,13.232-29.557,29.557-29.557h492.622
				c16.325,0,29.557,13.232,29.557,29.557v285.72H19.705V78.819z M352.717,541.884H238.429l16.119-88.672h82.09L352.717,541.884z
				 M571.441,403.95c0,16.326-13.232,29.557-29.557,29.557H49.262c-16.325,0-29.557-13.232-29.557-29.557v-19.705h551.736V403.95z"
				/>
			<path d="M313.613,97.963c-6.641-9.961-20.089-12.66-30.06-6.02c-2.384,1.586-4.434,3.636-6.02,6.02L161.698,271.73
				c-6.641,9.961-3.941,23.419,6.02,30.06c3.557,2.365,7.734,3.636,12.01,3.636h231.69c11.971,0,21.675-9.714,21.665-21.685
				c0-4.276-1.271-8.453-3.636-12.01L313.613,97.963z M413.152,284.735c-0.325,0.66-1.005,1.064-1.734,1.034h-231.69
				c-1.084,0-1.971-0.887-1.971-1.97c0-0.384,0.118-0.768,0.335-1.094l115.835-173.807c0.601-0.906,1.823-1.163,2.729-0.562
				c0.227,0.148,0.414,0.335,0.562,0.562l115.835,173.757C413.507,283.267,413.546,284.085,413.152,284.735z"/>
			<rect x="285.72" y="157.639" width="19.705" height="68.967"/>
			<rect x="285.72" y="246.311" width="19.705" height="19.705"/>
		</g>
	</g>
</g>
<g>
</g>
<g>
</g>
<g>
</g>
<g>
</g>
<g>
</g>
<g>
</g>
<g>
</g>
<g>
</g>
<g>
</g>
<g>
</g>
<g>
</g>
<g>
</g>
<g>
</g>
<g>
</g>
<g>
</g>
</svg>
