<svg id="Layer_3" enable-background="new 0 0 64 64" height="512" viewBox="0 0 64 64" width="512" xmlns="http://www.w3.org/2000/svg"><path d="m14 38v2h-5-7v-2c0-3.31 2.69-6 6-6s6 2.69 6 6z" fill="#fcd770"/><path d="m35.19 54.92c1.69 1.06 2.81 2.94 2.81 5.08v2h-12v-2c0-2.14 1.12-4.02 2.81-5.08.92-.58 2.02-.92 3.19-.92s2.27.34 3.19.92z" fill="#fcd770"/><path d="m20 58v2h-12v-2c0-3.31 2.69-6 6-6s6 2.69 6 6z" fill="#ff826e"/><path d="m62 38v2h-7-5v-2c0-3.31 2.69-6 6-6s6 2.69 6 6z" fill="#ff826e"/><path d="m17.19 12.92c1.69 1.06 2.81 2.94 2.81 5.08v2h-9-3v-2c0-3.31 2.69-6 6-6 1.17 0 2.27.34 3.19.92z" fill="#e6e9ed"/><path d="m46.81 12.92c.92-.58 2.02-.92 3.19-.92 3.31 0 6 2.69 6 6v2h-3-9v-2c0-2.14 1.12-4.02 2.81-5.08z" fill="#e6e9ed"/><path d="m38 16v2h-6-6v-2c0-3.31 2.69-6 6-6s6 2.69 6 6z" fill="#b4dd7f"/><path d="m38 38v2h-6-6v-2c0-3.31 2.69-6 6-6s6 2.69 6 6z" fill="#b4dd7f"/><path d="m56 58v2h-12v-2c0-3.31 2.69-6 6-6s6 2.69 6 6z" fill="#b4dd7f"/><g fill="#f0d0b4"><path d="m46.63 50.15c-.4-.62-.63-1.36-.63-2.15 0-.69.18-1.34.48-1.9.68-1.25 2-2.1 3.52-2.1.99 0 1.89.36 2.59.96.87.73 1.41 1.82 1.41 3.04 0 2.21-1.79 4-4 4-1.42 0-2.66-.74-3.37-1.85z"/><circle cx="32" cy="50" r="4"/><path d="m17.37 50.15c-.71 1.11-1.95 1.85-3.37 1.85-2.21 0-4-1.79-4-4 0-1.22.54-2.31 1.41-3.04.7-.6 1.6-.96 2.59-.96 1.52 0 2.84.85 3.52 2.1.3.56.48 1.21.48 1.9 0 .79-.23 1.53-.63 2.15z"/><circle cx="32" cy="28" r="4"/><path d="m56 24c2.21 0 4 1.79 4 4s-1.79 4-4 4-4-1.79-4-4c0-1.87 1.29-3.45 3.03-3.88.31-.08.64-.12.97-.12z"/><circle cx="50" cy="8" r="4"/><path d="m35.37 8.15c-.71 1.11-1.95 1.85-3.37 1.85s-2.66-.74-3.37-1.85c-.4-.62-.63-1.36-.63-2.15 0-2.21 1.79-4 4-4s4 1.79 4 4c0 .79-.23 1.53-.63 2.15z"/><circle cx="14" cy="8" r="4"/><path d="m8.97 24.12c1.74.43 3.03 2.01 3.03 3.88 0 2.21-1.79 4-4 4s-4-1.79-4-4 1.79-4 4-4c.33 0 .66.04.97.12z"/></g><path d="m63 41v-3c0-2.698-1.537-5.04-3.779-6.208 1.079-.918 1.779-2.268 1.779-3.792 0-2.757-2.243-5-5-5-.124 0-.241.028-.363.037l-1.019-2.037h2.382v-3c0-2.698-1.537-5.04-3.779-6.208 1.079-.918 1.779-2.268 1.779-3.792 0-2.757-2.243-5-5-5s-5 2.243-5 5c0 1.524.7 2.874 1.779 3.792-.012.006-.025.011-.036.018l-10.038-4.183c.178-.513.295-1.054.295-1.627 0-2.757-2.243-5-5-5s-5 2.243-5 5c0 .573.117 1.114.295 1.627l-10.037 4.183c-.012-.006-.025-.011-.036-.018 1.078-.918 1.778-2.268 1.778-3.792 0-2.757-2.243-5-5-5s-5 2.243-5 5c0 1.524.7 2.874 1.779 3.792-2.242 1.168-3.779 3.51-3.779 6.208v3h2.382l-1.018 2.037c-.123-.009-.24-.037-.364-.037-2.757 0-5 2.243-5 5 0 1.524.7 2.874 1.779 3.792-2.242 1.168-3.779 3.51-3.779 6.208v3h7.371l1.823 3.796c-.734.87-1.194 1.979-1.194 3.204 0 1.524.7 2.874 1.779 3.792-2.242 1.168-3.779 3.51-3.779 6.208v3h14v-3c0-2.698-1.537-5.04-3.779-6.208.159-.135.312-.274.453-.428l9.234 3.848c-1.179 1.253-1.908 2.935-1.908 4.788v3h14v-3c0-1.853-.729-3.535-1.908-4.788l9.234-3.848c.141.154.294.293.453.428-2.242 1.168-3.779 3.51-3.779 6.208v3h14v-3c0-2.698-1.537-5.04-3.779-6.208 1.079-.918 1.779-2.268 1.779-3.792 0-1.225-.46-2.334-1.194-3.204l1.823-3.796zm-2-3v1h-10v-1c0-2.757 2.243-5 5-5s5 2.243 5 5zm-2-10c0 1.654-1.346 3-3 3s-3-1.346-3-3 1.346-3 3-3 3 1.346 3 3zm-5.319-4.403c-1.586.84-2.681 2.488-2.681 4.403 0 1.13.391 2.162 1.026 3h-16.052c.546-.721.89-1.59.979-2.539l7.461-7.461h7.968zm-16.681 14.403v1h-10v-1c0-2.757 2.243-5 5-5s5 2.243 5 5zm-5 15c-1.654 0-3-1.346-3-3s1.346-3 3-3 3 1.346 3 3-1.346 3-3 3zm-3-25c0-1.654 1.346-3 3-3s3 1.346 3 3-1.346 3-3 3-3-1.346-3-3zm-2-11v-1c0-2.757 2.243-5 5-5s5 2.243 5 5v1zm28 1v1h-10v-1c0-2.757 2.243-5 5-5s5 2.243 5 5zm-8-10c0-1.654 1.346-3 3-3s3 1.346 3 3-1.346 3-3 3-3-1.346-3-3zm-2.092 5.212c-1.179 1.253-1.908 2.935-1.908 4.788v1.586l-6.42 6.42c-.643-1.471-1.97-2.577-3.58-2.905v-4.101h6v-3c0-2.698-1.537-5.04-3.779-6.208.159-.135.312-.274.453-.428zm-12.908-10.212c1.654 0 3 1.346 3 3s-1.346 3-3 3-3-1.346-3-3 1.346-3 3-3zm-3.221 6.792c-2.242 1.168-3.779 3.51-3.779 6.208v3h6v4.101c-1.61.328-2.937 1.434-3.58 2.905l-6.42-6.42v-1.586c0-1.853-.729-3.535-1.908-4.788l9.234-3.848c.141.154.294.293.453.428zm-17.779-1.792c0-1.654 1.346-3 3-3s3 1.346 3 3-1.346 3-3 3-3-1.346-3-3zm-2 10c0-2.757 2.243-5 5-5s5 2.243 5 5v1h-10zm2.618 3h7.968l7.461 7.461c.089.949.433 1.818.979 2.539h-16.052c.635-.838 1.026-1.87 1.026-3 0-1.915-1.095-3.563-2.681-4.403zm-6.618 7c0-1.654 1.346-3 3-3s3 1.346 3 3-1.346 3-3 3-3-1.346-3-3zm-2 10c0-2.757 2.243-5 5-5s5 2.243 5 5v1h-10zm12 3v-3c0-1.958-.81-3.728-2.111-5h14.221c-1.203 1.176-1.978 2.781-2.089 4.564l-7.223 7.223c-.917-1.083-2.27-1.787-3.798-1.787-.791 0-1.53.201-2.195.53l-1.216-2.53zm4 17v1h-10v-1c0-2.757 2.243-5 5-5s5 2.243 5 5zm-8-10c0-1.654 1.346-3 3-3s3 1.346 3 3-1.346 3-3 3-3-1.346-3-3zm8 0c0-.479-.089-.932-.215-1.371l6.215-6.215v.586h6v4.101c-2.279.465-4 2.484-4 4.899 0 1.524.7 2.874 1.779 3.792-.012.006-.025.011-.036.018l-10.037-4.182c.177-.514.294-1.055.294-1.628zm18 13h-10v-1c0-2.757 2.243-5 5-5s5 2.243 5 5zm-1.742-7.19c-.012-.006-.025-.011-.036-.018 1.078-.918 1.778-2.268 1.778-3.792 0-2.414-1.721-4.434-4-4.899v-4.101h6v-.586l6.215 6.215c-.126.439-.215.892-.215 1.371 0 .573.117 1.114.295 1.627zm19.742 4.19v1h-10v-1c0-2.757 2.243-5 5-5s5 2.243 5 5zm-8-10c0-1.654 1.346-3 3-3s3 1.346 3 3-1.346 3-3 3-3-1.346-3-3zm5.195-4.47c-.665-.329-1.404-.53-2.195-.53-1.528 0-2.881.704-3.799 1.787l-7.223-7.223c-.111-1.783-.886-3.388-2.089-4.564h14.221c-1.3 1.272-2.11 3.042-2.11 5v3h4.411z"/></svg>