<svg height="452pt" viewBox="-1 0 452 452.086" width="452pt" xmlns="http://www.w3.org/2000/svg"><g fill="#3a312a"><path d="m225.046875 20.691406c-1.660156 0-3-1.34375-3-3v-14.691406c0-1.65625 1.339844-3 3-3 1.65625 0 3 1.34375 3 3v14.691406c0 1.65625-1.34375 3-3 3zm0 0"/><path d="m286.558594 41.109375c-.625 0-1.253906-.195313-1.792969-.59375-1.328125-.992187-1.601563-2.875-.609375-4.199219l8.785156-11.777344c.988282-1.332031 2.875-1.601562 4.199219-.609374 1.328125.988281 1.601563 2.871093.609375 4.195312l-8.785156 11.777344c-.589844.792968-1.492188 1.207031-2.40625 1.207031zm0 0"/><path d="m323.648438 94.261719c-1.292969 0-2.484376-.84375-2.875-2.148438-.46875-1.585937.433593-3.257812 2.023437-3.726562l14.082031-4.183594c1.578125-.476563 3.257813.429687 3.726563 2.019531.472656 1.589844-.429688 3.257813-2.019531 3.730469l-14.082032 4.183594c-.28125.085937-.574218.125-.855468.125zm0 0"/><path d="m335.386719 164.109375c-.34375 0-.695313-.058594-1.039063-.183594l-13.789062-5.066406c-1.554688-.574219-2.351563-2.296875-1.78125-3.851563.570312-1.554687 2.292968-2.351562 3.851562-1.785156l13.789063 5.070313c1.554687.570312 2.351562 2.296875 1.78125 3.851562-.445313 1.214844-1.59375 1.964844-2.8125 1.964844zm0 0"/><path d="m163.535156 41.109375c-.914062 0-1.816406-.414063-2.40625-1.207031l-8.785156-11.777344c-.992188-1.324219-.71875-3.207031.609375-4.195312 1.324219-.992188 3.207031-.71875 4.199219.609374l8.785156 11.777344c.992188 1.324219.71875 3.207032-.609375 4.199219-.539063.402344-1.167969.59375-1.792969.59375zm0 0"/><path d="m126.441406 94.261719c-.285156 0-.570312-.039063-.855468-.125l-14.082032-4.183594c-1.589844-.472656-2.496094-2.140625-2.023437-3.730469.472656-1.589844 2.144531-2.5 3.730469-2.019531l14.082031 4.183594c1.589843.46875 2.492187 2.140625 2.023437 3.726562-.390625 1.308594-1.582031 2.148438-2.875 2.148438zm0 0"/><path d="m114.707031 164.109375c-1.222656 0-2.371093-.75-2.816406-1.964844-.574219-1.550781.222656-3.277343 1.777344-3.851562l13.792969-5.066407c1.554687-.570312 3.277343.226563 3.847656 1.78125.574218 1.554688-.226563 3.28125-1.78125 3.851563l-13.789063 5.070313c-.339843.121093-.6875.179687-1.03125.179687zm0 0"/></g><path d="m293.828125 118.210938c0 17.464843-6.488281 33.347656-17.214844 45.488281-10.101562 11.433593-16.546875 25.527343-19.207031 40.496093h-64.738281c-2.660157-14.96875-9.0625-29.0625-19.207031-40.539062-10.6875-12.101562-17.214844-28.023438-17.214844-45.445312 0-36.171876 28.980468-66.773438 65.070312-68.683594 39.664063-2.082032 72.511719 29.476562 72.511719 68.683594zm0 0" fill="#d7e057"/><path d="m257.40625 207.195312h-64.738281c-1.453125 0-2.699219-1.042968-2.953125-2.476562-2.640625-14.859375-9.039063-28.371094-18.5-39.074219-11.589844-13.117187-17.96875-29.964843-17.96875-47.433593 0-37.539063 30.464844-69.695313 67.910156-71.679688 19.9375-1.054688 38.855469 5.921875 53.285156 19.617188 14.4375 13.695312 22.382813 32.1875 22.382813 52.0625 0 17.503906-6.378907 34.363281-17.964844 47.472656-9.464844 10.714844-15.867187 24.214844-18.503906 39.035156-.253907 1.433594-1.496094 2.476562-2.949219 2.476562zm-62.257812-6h59.777343c3.082031-14.9375 9.773438-28.542968 19.441407-39.484374 10.617187-12.011719 16.460937-27.460938 16.460937-43.5 0-18.214844-7.285156-35.160157-20.515625-47.710938-13.226562-12.550781-30.59375-18.917969-48.839844-17.976562-34.3125 1.816406-62.226562 31.285156-62.226562 65.6875 0 16.007812 5.84375 31.441406 16.460937 43.460937 9.664063 10.929687 16.355469 24.550781 19.441407 39.523437zm0 0" fill="#3a312a"/><path d="m186.414062 204.210938h77.261719c3.359375 0 6.082031 2.726562 6.082031 6.085937v21.535156c0 3.359375-2.722656 6.082031-6.082031 6.082031h-77.261719c-3.359374 0-6.082031-2.722656-6.082031-6.082031v-21.535156c0-3.359375 2.722657-6.085937 6.082031-6.085937zm0 0" fill="#87796f"/><path d="m263.675781 240.914062h-77.261719c-5.007812 0-9.082031-4.070312-9.082031-9.082031v-21.535156c0-5.011719 4.074219-9.085937 9.082031-9.085937h77.261719c5.007813 0 9.082031 4.074218 9.082031 9.085937v21.535156c0 5.007813-4.074218 9.082031-9.082031 9.082031zm-77.261719-33.703124c-1.699218 0-3.082031 1.382812-3.082031 3.085937v21.535156c0 1.699219 1.382813 3.082031 3.082031 3.082031h77.261719c1.699219 0 3.082031-1.378906 3.082031-3.082031v-21.535156c0-1.703125-1.382812-3.085937-3.082031-3.085937zm0 0" fill="#3a312a"/><path d="m64.867188 22.355469s6.816406 25.316406 26.445312 26.492187c0 0-26.203125 9.046875-26.644531 28.402344 0 0-5.15625-27.144531-25.847657-28.117188 0 0 24.097657-3.652343 26.046876-26.777343zm0 0" fill="#d7e057"/><path d="m64.667969 80.25c-1.425781 0-2.671875-1.011719-2.945313-2.433594-.046875-.25-4.988281-24.835937-23.046875-25.6875-1.539062-.070312-2.773437-1.300781-2.855469-2.839844-.078124-1.542968 1.023438-2.890624 2.546876-3.125.882812-.132812 21.789062-3.632812 23.507812-24.0625.121094-1.453124 1.269531-2.601562 2.71875-2.734374 1.472656-.121094 2.785156.796874 3.164062 2.203124.066407.234376 6.519532 23.253907 23.726563 24.285157 1.429687.082031 2.597656 1.164062 2.792969 2.582031.195312 1.417969-.636719 2.777344-1.988282 3.246094-.242187.082031-24.234374 8.617187-24.625 25.636718-.035156 1.535157-1.222656 2.792969-2.75 2.917969-.078124.007813-.164062.011719-.246093.011719zm-15.484375-31.460938c7.757812 3.941407 12.460937 11.492188 15.175781 17.753907 4.050781-8.039063 11.882813-13.574219 17.898437-16.851563-8.269531-3.6875-13.566406-11.304687-16.667968-17.449218-3.589844 8.722656-10.542969 13.738281-16.40625 16.546874zm0 0" fill="#3a312a"/><path d="m21.46875 56.316406s4.824219 17.90625 18.703125 18.738282c0 0-18.53125 6.402343-18.84375 20.089843 0 0-3.648437-19.199219-18.28125-19.886719 0 0 17.046875-2.582031 18.421875-18.941406zm0 0" fill="#d7e057"/><path d="m21.328125 98.144531c-1.429687 0-2.675781-1.015625-2.945313-2.4375-.035156-.164062-3.410156-16.886719-15.480468-17.453125-1.542969-.074218-2.773438-1.300781-2.855469-2.84375-.078125-1.539062 1.023437-2.886718 2.546875-3.121094.589844-.09375 14.726562-2.488281 15.882812-16.226562.121094-1.453125 1.269532-2.605469 2.71875-2.738281 1.449219-.128907 2.785157.800781 3.164063 2.207031.042969.15625 4.457031 15.839844 15.988281 16.527344 1.429688.085937 2.597656 1.167968 2.792969 2.585937s-.636719 2.777344-1.992187 3.246094c-.160157.054687-16.5625 5.90625-16.824219 17.324219-.039063 1.535156-1.222657 2.792968-2.753907 2.921875-.078124.003906-.160156.007812-.242187.007812zm-9.039063-23.054687c4.214844 2.664062 7.046876 6.789062 8.894532 10.558594 2.75-4.464844 7.03125-7.746094 10.730468-9.945313-4.574218-2.539063-7.769531-6.699219-9.882812-10.449219-2.347656 4.574219-6.03125 7.753906-9.742188 9.835938zm0 0" fill="#3a312a"/><path d="m21.46875 3s4.824219 17.90625 18.703125 18.738281c0 0-18.53125 6.402344-18.84375 20.089844 0 0-3.648437-19.199219-18.28125-19.886719 0 0 17.046875-2.582031 18.421875-18.941406zm0 0" fill="#d7e057"/><path d="m21.328125 44.832031c-1.425781 0-2.675781-1.015625-2.945313-2.441406-.03125-.164063-3.40625-16.882813-15.476562-17.453125-1.542969-.070312-2.777344-1.300781-2.8554688-2.839844-.0820312-1.542968 1.0195308-2.890625 2.5429688-3.125.589844-.09375 14.730469-2.484375 15.886719-16.226562.121093-1.449219 1.269531-2.605469 2.71875-2.7343752 1.457031-.1171878 2.785156.7968752 3.164062 2.2031252.042969.15625 4.457031 15.839844 15.988281 16.527344 1.429688.085937 2.597657 1.167968 2.792969 2.585937.195313 1.417969-.640625 2.777344-1.992187 3.246094-.164063.054687-16.566406 5.90625-16.828125 17.324219-.035157 1.535156-1.222657 2.792968-2.75 2.921874-.082031.007813-.164063.011719-.246094.011719zm-9.039063-23.058593c4.214844 2.667968 7.046876 6.789062 8.894532 10.5625 2.75-4.464844 7.03125-7.746094 10.730468-9.949219-4.574218-2.535157-7.769531-6.699219-9.882812-10.445313-2.347656 4.574219-6.03125 7.75-9.742188 9.832032zm0 0" fill="#3a312a"/><path d="m143.894531 449.089844v-36.539063h15.675781c10.144532 0 18.363282-8.222656 18.363282-18.359375v-25.734375l1.023437-1.023437h28.570313c5.65625 0 9.191406-6.121094 6.363281-11.019532l-30.589844-52.988281c-.269531-.464843-.480469-.957031-.640625-1.472656-11.65625-37.679687-46.90625-64.996094-88.492187-64.671875-49.695313.390625-90.421875 40.847656-91.113281 90.542969-.464844 33.261719 16.753906 62.527343 42.855468 79.019531v42.242188h97.984375zm0 0" fill="#fce8cb"/><path d="m143.894531 452.085938c-1.660156 0-3-1.34375-3-3v-36.535157c0-1.65625 1.339844-3 3-3h15.679688c8.46875 0 15.359375-6.890625 15.359375-15.363281v-25.734375c0-.796875.316406-1.558594.878906-2.121094l1.023438-1.023437c.5625-.5625 1.328124-.878906 2.121093-.878906h28.574219c1.570312 0 2.976562-.8125 3.765625-2.171876.785156-1.363281.785156-2.988281 0-4.351562l-30.59375-52.984375c-.375-.648437-.679687-1.351563-.90625-2.089844-11.488281-37.128906-46.75-62.9375-85.605469-62.550781-47.929687.375-87.46875 39.667969-88.136718 87.585938-.4375 31.1875 15.0625 59.761718 41.457031 76.4375.871093.550781 1.398437 1.507812 1.398437 2.539062v42.242188c0 1.65625-1.339844 3-3 3-1.65625 0-3-1.34375-3-3v-40.609376c-27.320312-17.917968-43.3125-47.957031-42.8554685-80.695312.7148435-51.15625 42.9218745-93.101562 94.0937505-93.5.242187-.003906.480468-.003906.71875-.003906 41.253906 0 78.464843 27.375 90.660156 66.789062.097656.308594.21875.597656.371094.855469l30.59375 52.988281c1.871093 3.242188 1.871093 7.113282 0 10.351563-1.867188 3.238281-5.21875 5.171875-8.960938 5.171875h-26.59375v23.757812c0 11.777344-9.585938 21.363282-21.363281 21.363282h-12.679688v33.535156c0 1.652344-1.34375 2.996094-3 2.996094zm0 0" fill="#3a312a"/><path d="m146.433594 327.964844c0 29.089844-23.582032 52.671875-52.671875 52.671875-29.089844 0-52.675781-23.582031-52.675781-52.671875 0-29.09375 23.585937-52.675782 52.675781-52.675782 29.089843 0 52.671875 23.582032 52.671875 52.675782zm0 0" fill="#d7e057"/><path d="m93.761719 383.636719c-30.699219 0-55.675781-24.972657-55.675781-55.671875 0-30.699219 24.976562-55.675782 55.675781-55.675782s55.671875 24.976563 55.671875 55.675782c0 30.699218-24.972656 55.671875-55.671875 55.671875zm0-105.347657c-27.390625 0-49.675781 22.285157-49.675781 49.675782s22.285156 49.671875 49.675781 49.671875 49.671875-22.28125 49.671875-49.671875-22.28125-49.675782-49.671875-49.675782zm0 0" fill="#3a312a"/><path d="m306.195312 449.089844v-36.539063h-15.679687c-10.140625 0-18.359375-8.222656-18.359375-18.359375v-25.734375c-.398438-.398437-.625-.625-1.023438-1.023437h-28.574218c-5.65625 0-9.191406-6.121094-6.363282-11.019532l30.59375-52.988281c.269532-.464843.480469-.957031.636719-1.472656 11.660157-37.679687 46.90625-64.996094 88.492188-64.671875 49.699219.390625 90.421875 40.847656 91.117187 90.542969.464844 33.261719-16.757812 62.527343-42.855468 79.019531v42.242188h-97.984376zm0 0" fill="#fce8cb"/><path d="m404.179688 452.085938c-1.65625 0-3-1.34375-3-3v-42.242188c0-1.03125.53125-1.988281 1.398437-2.539062 26.394531-16.679688 41.890625-45.253907 41.457031-76.441407-.667968-47.917969-40.207031-87.210937-88.136718-87.582031-.226563-.003906-.453126-.003906-.679688-.003906-38.640625 0-73.5 25.640625-84.925781 62.5625-.222657.726562-.53125 1.433594-.90625 2.085937l-30.589844 52.984375c-.789063 1.363282-.789063 2.984375 0 4.347656.785156 1.363282 2.191406 2.175782 3.761719 2.175782h28.578125c.792969 0 1.554687.3125 2.121093.875l1.015626 1.015625c.566406.5625.882812 1.328125.882812 2.128906v25.734375c0 8.46875 6.890625 15.363281 15.363281 15.363281h15.679688c1.65625 0 3 1.34375 3 3v36.535157c0 1.65625-1.34375 3-3 3s-3-1.34375-3-3v-33.535157h-12.679688c-11.78125 0-21.363281-9.582031-21.363281-21.363281v-23.753906h-26.597656c-3.738282 0-7.089844-1.9375-8.960938-5.175782-1.871094-3.238281-1.871094-7.109374 0-10.347656l30.59375-52.988281c.152344-.261719.277344-.546875.371094-.855469 12.195312-39.414062 49.410156-66.789062 90.660156-66.789062h.71875c51.167969.402344 93.378906 42.34375 94.09375 93.503906.457032 32.734375-15.53125 62.773438-42.855468 80.695312v40.609376c0 1.65625-1.34375 3-3 3zm0 0" fill="#3a312a"/><path d="m409.003906 327.964844c0 29.089844-23.582031 52.671875-52.675781 52.671875-29.089844 0-52.671875-23.582031-52.671875-52.671875 0-29.09375 23.582031-52.675782 52.671875-52.675782 29.09375 0 52.675781 23.582032 52.675781 52.675782zm0 0" fill="#8ac5dc"/><path d="m356.328125 383.636719c-30.699219 0-55.671875-24.972657-55.671875-55.671875 0-30.699219 24.972656-55.675782 55.671875-55.675782s55.675781 24.976563 55.675781 55.675782c0 30.699218-24.976562 55.671875-55.675781 55.671875zm0-105.347657c-27.390625 0-49.671875 22.285157-49.671875 49.675782s22.28125 49.671875 49.671875 49.671875 49.675781-22.28125 49.675781-49.671875c-.003906-27.390625-22.285156-49.675782-49.675781-49.675782zm0 0" fill="#3a312a"/><path d="m211.625 317.914062h-106.078125v22h198.695313v15l40.304687-26-40.304687-26v15zm0 0" fill="#f16c7a"/><path d="m304.242188 357.914062c-.492188 0-.984376-.121093-1.433594-.363281-.964844-.527343-1.566406-1.535156-1.566406-2.636719v-12h-195.695313c-1.660156 0-3-1.34375-3-3v-22c0-1.652343 1.339844-3 3-3h106.078125c1.65625 0 3 1.347657 3 3 0 1.65625-1.34375 3-3 3h-103.078125v16h195.695313c1.65625 0 3 1.347657 3 3v9.496094l31.769531-20.496094-31.769531-20.492187v9.492187c0 1.65625-1.34375 3-3 3h-67.109376c-1.65625 0-3-1.34375-3-3 0-1.652343 1.34375-3 3-3h64.109376v-12c0-1.097656.601562-2.109374 1.566406-2.632812.960937-.523438 2.136718-.480469 3.058594.113281l40.304687 26c.855469.554688 1.375 1.503907 1.375 2.523438s-.519531 1.96875-1.375 2.523437l-40.304687 26c-.492188.3125-1.058594.472656-1.625.472656zm0 0" fill="#3a312a"/><path d="m290.824219 118.214844c0 16.039062-5.839844 31.480468-16.460938 43.5-9.65625 10.9375-16.359375 24.539062-19.4375 39.480468h-30c3.078125-14.941406 9.78125-28.542968 19.4375-39.480468 10.621094-12.019532 16.460938-27.460938 16.460938-43.5 0-18.222656-7.277344-35.160156-20.519531-47.722656-8.597657-8.15625-18.941407-13.71875-30.160157-16.339844 3.679688-.878906 7.460938-1.4375 11.320313-1.636719 18.261718-.941406 35.621094 5.4375 48.839844 17.976563 13.242187 12.5625 20.519531 29.5 20.519531 47.722656zm0 0" fill="#b9c239"/><path d="m266.765625 210.292969v21.542969c0 1.699218-1.378906 3.078124-3.082031 3.078124h-30c1.703125 0 3.082031-1.378906 3.082031-3.078124v-21.542969c0-1.699219-1.378906-3.078125-3.082031-3.078125h30c1.703125 0 3.082031 1.378906 3.082031 3.078125zm0 0" fill="#695b51"/></svg>