<svg height="512pt" viewBox="0 0 512 512" width="512pt" xmlns="http://www.w3.org/2000/svg"><path d="m8 8h272v224h-272zm0 0" fill="#a6e7ff"/><path d="m8 72c35.347656 0 64-28.652344 64-64h-64zm0 0" fill="#ff8a65"/><path d="m224 232-144-120-72 64v56zm0 0" fill="#8edf78"/><path d="m50 232 150-160 80 80v80zm0 0" fill="#e2fc85"/><path d="m472 216v272h-432v-272c0-8.835938 7.164062-16 16-16h400c8.835938 0 16 7.164062 16 16zm0 0" fill="#e0e0e0"/><path d="m72 232h368v192h-368zm0 0" fill="#90a4ae"/><path d="m296 456c0 8.835938-7.164062 16-16 16h-48c-8.835938 0-16-7.164062-16-16h-208v16c0 17.671875 14.328125 32 32 32h432c17.671875 0 32-14.328125 32-32v-16zm0 0" fill="#eee"/><path d="m344 152h-208v144h104v40l48-40h56zm0 0" fill="#2ac3f2"/><path d="m312 104h192v144h-192zm0 0" fill="#ff8a65"/><path d="m392 144v64l48-32zm0 0" fill="#fff"/><path d="m8 280h192v72l40 40h-40v32h-192zm0 0" fill="#e2fc85"/><path d="m144 336h-24v-24h-32v24h-24v32h24v24h32v-24h24zm0 0" fill="#8edf78"/><g fill="#fff"><path d="m419.3125 344h-115.3125v-16h76.6875l-10.34375-10.34375 11.3125-11.3125zm0 0"/><path d="m338.34375 397.65625-37.65625-37.65625h115.3125v16h-76.6875l10.34375 10.34375zm0 0"/><path d="m168 176h120v16h-120zm0 0"/><path d="m168 208h48v16h-48zm0 0"/><path d="m232 208h56v16h-56zm0 0"/><path d="m168 240h72v16h-72zm0 0"/><path d="m256 240h32v16h-32zm0 0"/><path d="m352 160h-16v-32h32v16h-16zm0 0"/><path d="m480 224h-32v-16h16v-16h16zm0 0"/><path d="m80 64h48v16h-48zm0 0"/><path d="m96 32h80v16h-80zm0 0"/></g><path d="m128 304h-48v24h-24v48h24v24h48v-24h24v-48h-24zm8 40v16h-24v24h-16v-24h-24v-16h24v-24h16v24zm0 0"/><path d="m304 144h-16v-144h-288v240h32v32h-32v160h32v16h-32v24c.0273438 22.082031 17.917969 39.972656 40 40h432c22.082031-.027344 39.972656-17.917969 40-40v-24h-32v-192h32v-160h-208zm0 16v96h32v32h-50.894531l-37.105469 30.921875v-30.921875h-40v-16h-64v-112zm-256 288v-16h400v-176h16v192h-176v8c0 4.417969-3.582031 8-8 8h-48c-4.417969 0-8-3.582031-8-8v-8zm384-32h-224v-16h51.3125l-51.3125-51.3125v-44.6875h24v49.078125l58.894531-49.078125h61.105469v-48h80zm-288.535156-272 56.71875-60.496094 60.503906 60.496094zm-127.464844-128h47.359375c-3.566406 24.527344-22.832031 43.792969-47.359375 47.359375zm0 63.527344c33.394531-3.78125 59.746094-30.132813 63.527344-63.527344h192.472656v116.6875l-72.183594-72.183594-74.175781 79.121094-45.808594-38.175781-63.832031 56.734375zm48 144.472656v48h-16v-56c0-4.417969 3.582031-8 8-8h72v16zm64 16v32h-48v-32zm-29.535156-48 29.535156-31.503906v31.503906zm-82.464844 32v-44.40625l64.167969-57.042969 34.511719 28.800781-38.144532 40.648438h-20.535156c-13.253906 0-24 10.746094-24 24v8zm0 192v-128h176v67.3125l28.6875 28.6875h-28.6875v32zm480 48v8c0 13.253906-10.746094 24-24 24h-432c-13.253906 0-24-10.746094-24-24v-8h193.367188c3.402343 9.582031 12.464843 15.988281 22.632812 16h48c10.167969-.011719 19.230469-6.417969 22.632812-16zm-176-352h176v128h-176zm0 0"/><path d="m384 222.953125 70.398438-46.953125-70.398438-46.953125zm16-64 25.601562 17.046875-25.601562 17.046875zm0 0"/><path d="m464 0h16v64h-16zm0 0"/><path d="m496 0h16v80h-16zm0 0"/><path d="m432 0h16v48h-16zm0 0"/></svg>