<?xml version="1.0"?>
<svg xmlns="http://www.w3.org/2000/svg" viewBox="0 0 64 64" width="512" height="512"><g id="Error"><rect x="3" y="3" width="58" height="38" rx="2" style="fill:#006df0"/><rect x="6" y="6" width="52" height="29" style="fill:#c2dff6"/><polygon points="22 49 42 49 37 41 27 41 22 49" style="fill:#ffcd00"/><path d="M57,47a4,4,0,0,0-4,4v6a4,4,0,0,0,8,0V51A4,4,0,0,0,57,47Z" style="fill:#ff3051"/><rect x="3" y="49" width="44" height="12" rx="2" style="fill:#a7a9ac"/><polygon points="6 6 6 34.922 35.717 6 6 6" style="fill:#d1e7f8"/><polygon points="32 11 22 31 42 31 32 11" style="fill:#d80027"/><path d="M59,2H5A3,3,0,0,0,2,5V39a3,3,0,0,0,3,3H25.2l-3.75,6H18v2H46V48H42.555l-3.75-6H59a3,3,0,0,0,3-3V5A3,3,0,0,0,59,2ZM40.2,48H23.805l3.75-6h8.89ZM60,39a1,1,0,0,1-1,1H5a1,1,0,0,1-1-1V5A1,1,0,0,1,5,4H59a1,1,0,0,1,1,1Z"/><path d="M5,36H59V5H5ZM7,7H57V34H7Z"/><rect x="35" y="37" width="2" height="2"/><rect x="31" y="37" width="2" height="2"/><rect x="27" y="37" width="2" height="2"/><rect x="48" y="48" width="2" height="2"/><rect x="14" y="48" width="2" height="2"/><path d="M46,59a1,1,0,0,1-1,1H5a1,1,0,0,1-1-1V51a1,1,0,0,1,1-1h7V48H5a3,3,0,0,0-3,3v8a3,3,0,0,0,3,3H45a3,3,0,0,0,3-3V51H46Z"/><rect x="6" y="51" width="2" height="2"/><rect x="10" y="51" width="2" height="2"/><rect x="14" y="51" width="2" height="2"/><rect x="18" y="51" width="2" height="2"/><rect x="26" y="51" width="2" height="2"/><rect x="30" y="51" width="2" height="2"/><rect x="38" y="51" width="2" height="2"/><rect x="42" y="51" width="2" height="2"/><rect x="6" y="54" width="2" height="2"/><rect x="10" y="54" width="2" height="2"/><rect x="14" y="54" width="2" height="2"/><rect x="18" y="54" width="2" height="2"/><rect x="26" y="54" width="2" height="2"/><rect x="22" y="51" width="2" height="2"/><rect x="22" y="54" width="2" height="2"/><rect x="30" y="54" width="2" height="2"/><rect x="38" y="54" width="2" height="2"/><rect x="42" y="54" width="2" height="2"/><rect x="6" y="57" width="2" height="2"/><rect x="10" y="57" width="2" height="2"/><rect x="42" y="57" width="2" height="2"/><rect x="34" y="51" width="2" height="2"/><rect x="34" y="54" width="2" height="2"/><rect x="38" y="57" width="2" height="2"/><rect x="14" y="57" width="22" height="2"/><path d="M57,46a5.006,5.006,0,0,0-5,5v6a5,5,0,0,0,10,0V51A5.006,5.006,0,0,0,57,46Zm3,11a3,3,0,0,1-6,0V51a3,3,0,0,1,6,0Z"/><rect x="56" y="49" width="2" height="4"/><path d="M20.382,32H43.618L32,8.764Zm3.236-2L32,13.236,40.382,30Z"/><rect x="31" y="18" width="2" height="2"/><rect x="31" y="22" width="2" height="7"/></g></svg>
