<svg id="Layer_1" enable-background="new 0 0 128 128" height="512" viewBox="0 0 128 128" width="512" xmlns="http://www.w3.org/2000/svg"><path d="m124.16 111.336c-2.722-7.813-9.326-13.731-17.249-15.683 3.919-2.571 6.827-6.519 8.082-11.05 2.459.025 4.367-2.357 4.367-5.407 0-1.265-.334-2.463-.945-3.416v-9.333c0-10.288-8.307-18.662-18.565-18.791v-8.822c0-10.752-8.748-19.5-19.5-19.5h-28.696c-10.752 0-19.5 8.748-19.5 19.5v8.822c-10.259.128-18.568 8.502-18.568 18.791v9.333c-.612.953-.945 2.151-.945 3.416 0 3.051 1.913 5.408 4.368 5.407 1.254 4.531 4.162 8.479 8.081 11.05-4.487 1.101-8.616 3.478-11.843 6.857-.092.082-.153.155-.155.163-2.357 2.515-4.124 5.429-5.251 8.662-.106.306-.059.645.129.908s.492.421.815.421h53.74c.324 0 .627-.157.815-.421s.236-.603.129-.908c-2.722-7.814-9.327-13.731-17.25-15.683 3.92-2.57 6.828-6.519 8.083-11.05 2.441.01 4.368-2.357 4.368-5.407 0-1.265-.333-2.463-.945-3.416v-9.333c0-10.289-8.31-18.664-18.569-18.791v-8.821c0-6.893 5.607-12.5 12.5-12.5h28.695c6.893 0 12.5 5.607 12.5 12.5v8.821c-10.261.126-18.571 8.501-18.571 18.791v9.333c-.611.953-.945 2.151-.945 3.416 0 3.05 1.933 5.432 4.368 5.407 1.254 4.531 4.161 8.479 8.08 11.05-4.485 1.101-8.614 3.478-11.841 6.856-.088.077-.147.147-.157.164-2.357 2.515-4.124 5.43-5.251 8.662-.106.306-.059.645.129.908s.491.421.815.421h53.739c.324 0 .628-.157.815-.421s.234-.6.128-.906z" fill="#e6e7e8"/><path d="m39.299 92.132c5.134-2.364 8.995-7.028 10.256-12.666.259.086.524.138.79.138 1.864 0 3.324-1.936 3.324-4.407 0-1.223-.358-2.314-.945-3.105v-9.644c0-9.832-7.97-17.803-17.803-17.803h-6.532c-9.832 0-17.803 7.97-17.803 17.803v9.644c-.586.79-.945 1.881-.945 3.104 0 2.472 1.46 4.407 3.324 4.407.266 0 .531-.051.79-.138 1.261 5.638 5.122 10.303 10.256 12.666-5.511.676-10.433 3.275-14.076 7.107-.043.034-.079.075-.114.119-2.216 2.364-3.948 5.186-5.037 8.307h53.74c-2.88-8.266-10.278-14.434-19.225-15.532z" fill="#d4fbff"/><path d="m99.99 92.132c5.134-2.364 8.995-7.028 10.256-12.666.259.086.524.138.79.138 1.864 0 3.324-1.936 3.324-4.407 0-1.223-.358-2.314-.945-3.105v-9.644c0-9.832-7.97-17.803-17.803-17.803h-6.532c-9.832 0-17.803 7.97-17.803 17.803v9.644c-.587.791-.945 1.882-.945 3.105 0 2.472 1.46 4.407 3.324 4.407.266 0 .531-.051.79-.138 1.261 5.638 5.122 10.303 10.256 12.666-5.511.676-10.433 3.275-14.076 7.107-.043.034-.079.075-.114.119-2.216 2.364-3.948 5.186-5.037 8.307h53.74c-2.88-8.267-10.278-14.435-19.225-15.533z" fill="#ffd7e5"/><path d="m89.08 47.645h6.532c9.832 0 17.803 7.97 17.803 17.803v-3c0-9.832-7.97-17.803-17.803-17.803h-6.532c-9.832 0-17.802 7.97-17.802 17.803v3c0-9.833 7.97-17.803 17.802-17.803z" fill="#fff"/><path d="m98.577 56.269-3.728-.002v-21.432c0-10.217-8.283-18.5-18.5-18.5h-28.695c-10.217 0-18.5 8.283-18.5 18.5v16.633c.123.118.225.261.294.428l.787 1.905c.924-.139 1.874-.147 2.821-.01l.792-1.906c.071-.172.179-.315.307-.435v-16.615c0-7.456 6.044-13.5 13.5-13.5h28.695c7.456 0 13.5 6.044 13.5 13.5v21.429l-3.736-.002c-.837-.001-1.304.965-.785 1.621l6.224 7.86c.4.505 1.166.506 1.567.001l6.239-7.852c.521-.656.055-1.622-.782-1.623z" fill="#fa759e"/><path d="m43.262 65.685-1.99-.827c.14-.927.141-1.856.017-2.762l1.962-.81c.65-.269.963-1.02.694-1.671l-.861-2.086c-.269-.65-1.02-.963-1.671-.694l-1.936.799c-.551-.749-1.214-1.424-1.975-1.996l.792-1.906c.27-.65-.041-1.402-.691-1.672l-2.084-.866c-.65-.27-1.402.041-1.672.691l-.792 1.906c-.948-.137-1.897-.129-2.821.01l-.787-1.905c-.269-.65-1.02-.963-1.671-.694l-2.085.861c-.65.269-.963 1.02-.694 1.671l.8 1.938c-.737.558-1.4 1.224-1.961 1.988l-1.942-.807c-.65-.27-1.402.041-1.672.691l-.866 2.084c-.27.65.041 1.402.691 1.672l1.991.827c-.122.922-.111 1.845.028 2.743l-2.008.829c-.65.269-.963 1.02-.694 1.671l.861 2.086c.269.65 1.02.963 1.671.694l2.056-.849c.541.711 1.182 1.352 1.917 1.899l-.853 2.053c-.27.65.041 1.402.69 1.672l2.084.866c.65.27 1.402-.041 1.672-.69l.861-2.072c.902.126 1.805.12 2.686-.004l.853 2.065c.269.65 1.02.963 1.671.694l2.086-.861c.65-.269.963-1.02.694-1.671l-.848-2.053c.722-.535 1.374-1.173 1.932-1.905l2.019.839c.65.27 1.402-.041 1.672-.691l.866-2.084c.269-.651-.042-1.403-.692-1.673zm-13.902 3.328c-3.049-1.267-4.494-4.766-3.227-7.816 1.267-3.049 4.766-4.494 7.816-3.227s4.494 4.766 3.227 7.816c-1.267 3.049-4.766 4.494-7.816 3.227z" fill="#0089ef"/><g fill="#3a2c60"><path d="m35.224 106.665h-6.25c-.552 0-1 .447-1 1s.448 1 1 1h6.25c.552 0 1-.447 1-1s-.448-1-1-1z"/><path d="m120.16 107.336c-2.723-7.814-9.327-13.732-17.25-15.683 3.919-2.571 6.827-6.519 8.082-11.05 2.404.011 4.368-2.357 4.368-5.407 0-1.265-.334-2.463-.945-3.416v-9.333c0-10.288-8.308-18.662-18.566-18.791v-8.822c0-10.752-8.748-19.5-19.5-19.5h-28.695c-10.752 0-19.5 8.748-19.5 19.5v8.822c-10.258.128-18.568 8.502-18.568 18.791v9.333c-.612.953-.945 2.151-.945 3.416 0 3.05 1.899 5.425 4.368 5.407 1.254 4.531 4.162 8.479 8.081 11.05-4.487 1.101-8.616 3.478-11.843 6.857-.092.082-.153.155-.155.163-2.357 2.515-4.124 5.429-5.251 8.662-.106.306-.059.645.129.908.187.264.492.421.815.421h19.564c.552 0 1-.447 1-1s-.448-1-1-1h-18.109c1.028-2.441 2.475-4.667 4.313-6.641.038-.03.073-.062.106-.097 3.574-3.76 8.359-6.176 13.473-6.804.443-.054.797-.396.866-.838s-.164-.876-.57-1.062c-4.9-2.256-8.525-6.732-9.697-11.976-.062-.276-.237-.513-.483-.652-.246-.14-.54-.169-.807-.079-.175.058-.335.087-.476.087-1.282 0-2.324-1.528-2.324-3.407 0-.968.266-1.859.749-2.51.128-.172.197-.381.197-.596v-9.644c0-9.185 7.412-16.663 16.568-16.791v4.459c-.254.012-.51.059-.759.161l-2.085.861c-1.162.479-1.716 1.814-1.237 2.977l.517 1.251c-.381.334-.738.695-1.067 1.08l-1.244-.517c-.561-.234-1.181-.233-1.745-.001-.563.232-1.002.67-1.235 1.23l-.866 2.084c-.233.561-.233 1.18-.001 1.744.233.563.67 1.003 1.231 1.235l1.31.544c-.029.489-.025.979.013 1.467l-1.31.541c-1.162.479-1.716 1.814-1.237 2.977l.861 2.086c.479 1.162 1.818 1.713 2.976 1.236l1.372-.566c.314.356.651.69 1.008 1.001l-.565 1.36c-.233.561-.233 1.18-.001 1.744.233.563.67 1.003 1.231 1.235l2.084.866c.285.118.58.174.871.174.894 0 1.745-.529 2.108-1.404l.576-1.387c.469.03.938.028 1.408-.002l.568 1.375c.48 1.161 1.813 1.717 2.977 1.236l2.086-.856c1.161-.479 1.716-1.814 1.236-2.977l-.562-1.359c.363-.313.705-.65 1.022-1.009l1.334.554c.561.234 1.18.234 1.745.002.563-.233 1.002-.671 1.235-1.231l.866-2.083c.482-1.16-.07-2.497-1.229-2.979 0 0 0-.001-.001-.001l-1.296-.538c.037-.494.04-.99.008-1.486l1.275-.527c1.161-.479 1.716-1.814 1.236-2.977l-.861-2.084c-.231-.562-.669-1-1.232-1.234-.562-.232-1.182-.234-1.744-.004l-1.24.513c-.333-.39-.694-.754-1.08-1.091l.505-1.217c.233-.561.233-1.18.001-1.744-.233-.563-.67-1.003-1.231-1.235l-2.084-.866c-.245-.102-.498-.148-.749-.162v-4.451c9.157.127 16.569 7.605 16.569 16.791v9.644c0 .215.069.424.197.596.483.65.749 1.542.749 2.51 0 1.879-1.042 3.407-2.324 3.407-.142 0-.301-.029-.476-.087-.268-.089-.561-.061-.807.079s-.421.376-.483.652c-1.172 5.243-4.798 9.72-9.698 11.976-.406.187-.639.62-.57 1.062.069.441.423.784.867.838 7.919.972 14.798 6.226 17.891 13.541h-16.845c-.552 0-1 .447-1 1s.448 1 1 1h18.3c.324 0 .627-.157.815-.421s.236-.603.129-.908c-2.722-7.814-9.327-13.731-17.25-15.683 3.92-2.57 6.828-6.519 8.083-11.05 2.427.026 4.368-2.357 4.368-5.407 0-1.265-.333-2.463-.945-3.416v-9.333c0-10.289-8.31-18.664-18.569-18.791v-8.821c0-6.893 5.607-12.5 12.5-12.5h28.694c6.893 0 12.5 5.607 12.5 12.5v8.821c-10.261.126-18.571 8.501-18.571 18.791v9.333c-.611.953-.945 2.151-.945 3.416 0 3.05 1.95 5.425 4.368 5.407 1.255 4.53 4.162 8.479 8.081 11.05-4.486 1.101-8.616 3.478-11.843 6.857-.072.063-.132.127-.155.163-2.357 2.515-4.124 5.429-5.252 8.662-.106.306-.059.645.129.908s.492.421.815.421h53.74c.324 0 .628-.157.815-.421s.236-.604.129-.91zm-82.94-54.353c.091.037.132.111.149.151s.039.122.001.213l-.792 1.906c-.175.422-.042.909.323 1.184.674.506 1.27 1.107 1.771 1.789.272.37.764.507 1.187.332l1.936-.8c.09-.036.172-.015.213.002s.114.059.151.15l.861 2.085c.058.14-.012.307-.151.365l-1.962.811c-.421.174-.671.609-.609 1.061.114.825.109 1.658-.015 2.477-.069.454.181.896.605 1.073l1.989.825c.14.059.209.227.151.366l-.866 2.083c-.038.092-.112.134-.152.15-.041.017-.122.038-.213 0l-2.02-.839c-.42-.175-.905-.044-1.179.318-.493.646-1.075 1.221-1.731 1.707-.368.273-.503.762-.329 1.186l.848 2.053c.058.14-.012.307-.151.365l-2.086.861c-.138.059-.306-.013-.364-.152l-.853-2.065c-.174-.422-.605-.671-1.065-.608-.802.113-1.612.116-2.407.005-.446-.065-.887.187-1.062.606l-.861 2.072c-.058.141-.225.211-.365.15l-2.083-.865c-.091-.037-.132-.111-.149-.151s-.039-.122-.001-.213l.853-2.053c.176-.423.042-.912-.326-1.186-.647-.482-1.225-1.056-1.718-1.703-.194-.255-.491-.395-.796-.395-.128 0-.257.024-.381.075l-2.056.85c-.091.036-.173.014-.213-.002-.04-.017-.113-.059-.151-.149l-.861-2.086c-.058-.14.012-.307.152-.365l2.008-.829c.426-.176.677-.62.606-1.076-.125-.812-.134-1.64-.025-2.459.06-.449-.189-.882-.608-1.056l-1.992-.827c-.091-.037-.132-.111-.149-.151s-.039-.122-.001-.213l.866-2.084c.038-.091.112-.133.152-.149.04-.019.123-.039.213-.001l1.942.807c.427.177.917.039 1.19-.332.496-.675 1.087-1.274 1.758-1.782.363-.274.495-.759.321-1.18l-.8-1.938c-.058-.14.012-.307.152-.365l2.085-.861c.139-.056.306.013.364.152l.787 1.905c.175.425.619.678 1.074.606.84-.126 1.691-.132 2.529-.009.448.063.891-.185 1.066-.606l.792-1.905c.059-.14.225-.213.365-.151zm39.129-32.648h-28.695c-7.995 0-14.5 6.505-14.5 14.5v16.246c-.089.129-.167.269-.23.42l-.505 1.216c-.516-.036-1.034-.034-1.548.006l-.499-1.209c-.06-.145-.133-.281-.218-.406v-16.273c0-9.649 7.851-17.5 17.5-17.5h28.694c9.649 0 17.5 7.851 17.5 17.5v21.432c0 .552.447 1 .999 1l3.729.003-6.239 7.852-6.225-7.86 3.735.003h.001c.265 0 .52-.105.707-.293s.293-.441.293-.707v-21.43c.001-7.995-6.504-14.5-14.499-14.5zm-9.418 86.33c1.029-2.441 2.477-4.667 4.317-6.645.037-.028.07-.06.103-.093 3.574-3.76 8.359-6.176 13.474-6.804.443-.054.797-.396.866-.838.068-.442-.164-.876-.57-1.062-4.9-2.256-8.525-6.732-9.698-11.976-.062-.276-.236-.513-.482-.652-.247-.14-.54-.169-.808-.079-.174.058-.334.087-.476.087-1.281 0-2.324-1.528-2.324-3.407 0-.968.266-1.859.748-2.51.128-.172.197-.381.197-.596v-9.644c0-9.187 7.414-16.665 16.571-16.791v9.606l-2.735-.002c-.774 0-1.464.433-1.801 1.13s-.248 1.506.232 2.112l6.225 7.86c.381.481.952.758 1.565.758h.002c.613 0 1.184-.274 1.566-.755l6.239-7.853c.481-.606.571-1.417.235-2.114-.337-.697-1.026-1.13-1.8-1.13l-2.729-.002v-9.611c9.155.128 16.566 7.606 16.566 16.791v9.644c0 .215.069.424.197.596.482.65.748 1.542.748 2.51 0 1.879-1.043 3.407-2.324 3.407-.142 0-.302-.029-.476-.087-.27-.09-.562-.061-.808.079s-.421.376-.482.652c-1.173 5.243-4.798 9.72-9.698 11.976-.406.187-.639.62-.57 1.062.069.441.423.784.866.838 7.919.972 14.799 6.225 17.892 13.541h-50.828z"/><path d="m28.991 57.041c-1.723.712-3.066 2.052-3.781 3.772-1.477 3.554.213 7.646 3.767 9.124.873.362 1.777.533 2.668.533 2.737 0 5.34-1.62 6.455-4.301.715-1.722.718-3.619.006-5.342-.711-1.723-2.051-3.065-3.772-3.781-1.723-.714-3.62-.716-5.343-.005zm7.266 4.551c.507 1.229.506 2.582-.004 3.811-1.054 2.536-3.976 3.742-6.508 2.688-2.535-1.054-3.741-3.974-2.688-6.509.51-1.229 1.468-2.184 2.697-2.691 1.23-.508 2.583-.508 3.811.005 1.228.508 2.184 1.466 2.692 2.696z"/></g></svg>