<svg id="_x33_0" enable-background="new 0 0 64 64" height="512" viewBox="0 0 64 64" width="512" xmlns="http://www.w3.org/2000/svg"><g><g><path d="m14.18 41.36 1.67-2.47 6.69 4.79-6.62 10.32-.11.17c-.69 1.07-1.67 1.88-2.81 2.35-.74.31-1.54.48-2.36.48-1.38 0-2.66-.46-3.7-1.24-.06-.04-.12-.09-.17-.13-.96-.78-1.69-1.84-2.04-3.09l-2.24-7.84c-.33-1.13-.49-2.29-.49-3.47 0-1.01.24-2 .68-2.89.45-.88 1.1-1.67 1.91-2.28.92-.69 2.02-1.13 3.16-1.25l2.99-.33z" fill="#b4dd7f"/><path d="m35.58 51.47-1.06 3.72c-.34 1.19-.92 2.31-1.7 3.28-1.78 2.23-4.48 3.53-7.34 3.53h-8.48v-8h-1.08l6.62-10.32 2.39-3.73 2.43-3.78c.36-.56.57-1.19.63-1.84l4.26.48c1.14.12 2.24.56 3.16 1.25.39.29.74.63 1.05 1 .34.39.63.82.86 1.28.44.89.68 1.88.68 2.89 0 1.18-.16 2.34-.49 3.47z" fill="#b4dd7f"/><path d="m15.85 38.89-1.67 2.47-3.44-6.88 4.26-.48 2.07 3.1z" fill="#e6e9ed"/><path d="m17 54v8h-4v-5.48c1.14-.47 2.12-1.28 2.81-2.35l.11-.17z" fill="#fc6e51"/><path d="m18.33 35.24 6.6 4.71-2.39 3.73-6.69-4.79 1.22-1.79z" fill="#fc6e51"/><path d="m48 11c-5.52 0-10 4.48-10 10s4.48 10 10 10c-2.65 0-5.13.74-7.25 2.03l-.05-.08c-3.54-2.17-6.04-5.87-6.59-10.17.38-.15.73-.38 1.01-.66.54-.54.88-1.29.88-2.12 0-.87-.37-1.66-.97-2.21l.54-3.24c2.33-4.49 7.03-7.55 12.43-7.55 7.73 0 14 6.27 14 14 0 5.08-2.71 9.53-6.76 11.99l-.01.02c-2.12-1.27-4.59-2.01-7.23-2.01 5.52 0 10-4.48 10-10s-4.48-10-10-10z" fill="#ffc729"/><circle cx="48" cy="21" fill="#fcd770" r="10"/><circle cx="48" cy="45" fill="#fcd770" r="10"/><path d="m37.51 44.7c.33-1.13.49-2.29.49-3.47 0-1.01-.24-2-.68-2.89-.23-.46-.52-.89-.86-1.28l.01-.01c1.13-1.62 2.59-3 4.28-4.02 2.12-1.29 4.6-2.03 7.25-2.03 2.64 0 5.11.74 7.23 2.01 4.06 2.45 6.77 6.9 6.77 11.99 0 7.73-6.27 14-14 14-5.4 0-10.09-3.05-12.42-7.53z" fill="#ffc729"/><path d="m35.57 14.55-.54 3.24c-.53-.49-1.24-.79-2.03-.79h-1v-2.7c0-1.44-.72-2.78-1.92-3.58-.7-.47-1.53-.72-2.38-.72 0 0-1.7 3-6.7 3s-6.7-3-6.7-3c-.85 0-1.68.25-2.38.72-1.2.8-1.92 2.14-1.92 3.58v2.7h-1c-.79 0-1.5.3-2.03.8l-.74-4.42c-.15-.92-.23-1.85-.23-2.77 0-1.44.36-2.83 1.02-4.06s1.62-2.31 2.81-3.1c1.42-.95 3.08-1.45 4.78-1.45h6.39 6.39c1.7 0 3.36.5 4.78 1.45 1.19.79 2.15 1.87 2.81 3.1s1.02 2.62 1.02 4.06c0 .92-.08 1.85-.23 2.77z" fill="#656d78"/><g fill="#f0d0b4"><path d="m6.94 55.76c1.04.78 2.32 1.24 3.7 1.24.82 0 1.62-.17 2.36-.48v5.48h-3c-1.1 0-2.1-.45-2.83-1.17-.72-.73-1.17-1.73-1.17-2.83 0-.89.29-1.7.77-2.37.05.04.11.09.17.13z"/><path d="m27.91 33.16c.08.39.11.79.08 1.17-.06.65-.27 1.28-.63 1.84l-2.43 3.78-6.6-4.71 2.31-3.41c.61-.94 1.56-1.57 2.63-1.76.24-.05.48-.07.73-.07.77 0 1.53.22 2.18.64.89.58 1.51 1.48 1.73 2.52z"/><path d="m23.27 30.07c-1.07.19-2.02.82-2.63 1.76l-2.31 3.41-1.26 1.86-2.07-3.1 1-5.2c1.5.77 3.2 1.2 5 1.2.76 0 1.5-.08 2.22-.22z"/><path d="m34.11 22.78c-.34.14-.72.22-1.11.22h-1.75c.48-1.24.75-2.59.75-4v-2h1c.79 0 1.5.3 2.03.79.6.55.97 1.34.97 2.21 0 .83-.34 1.58-.88 2.12-.28.28-.63.51-1.01.66z"/><path d="m32 17v2c0 1.41-.27 2.76-.75 4-1.34 3.43-4.35 6.02-8.03 6.78-.72.14-1.46.22-2.22.22-1.8 0-3.5-.43-5-1.2-2.39-1.22-4.27-3.28-5.25-5.8-.48-1.24-.75-2.59-.75-4v-2-2.7c0-1.44.72-2.78 1.92-3.58.7-.47 1.53-.72 2.38-.72 0 0 1.7 3 6.7 3s6.7-3 6.7-3c.85 0 1.68.25 2.38.72 1.2.8 1.92 2.14 1.92 3.58z"/><path d="m10.75 23h-1.75c-.83 0-1.58-.34-2.12-.88s-.88-1.29-.88-2.12c0-.87.37-1.66.97-2.2.53-.5 1.24-.8 2.03-.8h1v2c0 1.41.27 2.76.75 4z"/></g></g><g><path d="m25 23h-2c0 1.103-.897 2-2 2s-2-.897-2-2h-2c0 2.206 1.794 4 4 4s4-1.794 4-4z"/><path d="m19 18h-2c0 .551-.449 1-1 1s-1-.449-1-1h-2c0 1.654 1.346 3 3 3s3-1.346 3-3z"/><path d="m26 21c1.654 0 3-1.346 3-3h-2c0 .551-.449 1-1 1s-1-.449-1-1h-2c0 1.654 1.346 3 3 3z"/><path d="m47 49.816v2.184h2v-2h2v-3c0-1.654-1.346-3-3-3-.551 0-1-.449-1-1v-1h1c.551 0 1 .449 1 1v1h2v-1c0-1.302-.839-2.402-2-2.816v-2.184h-2v2h-2v3c0 1.654 1.346 3 3 3 .551 0 1 .449 1 1v1h-1c-.551 0-1-.449-1-1v-1h-2v1c0 1.302.839 2.402 2 2.816z"/><path d="m56.977 33.011c3.793-2.824 6.023-7.211 6.023-12.011 0-8.271-6.729-15-15-15-4.257 0-8.211 1.777-11.008 4.806.001-.067.008-.133.008-.2 0-3.219-1.599-6.207-4.277-7.992-1.583-1.056-3.426-1.614-5.328-1.614h-12.79c-1.903 0-3.745.558-5.328 1.613-2.678 1.786-4.277 4.774-4.277 7.992 0 .979.082 1.967.243 2.935l.66 3.96c-.556.687-.903 1.55-.903 2.5 0 2.206 1.794 4 4 4h1.105c1.021 2.216 2.696 4.065 4.779 5.306l-.727 3.781-6.513.724c-1.325.147-2.59.648-3.657 1.448-1.87 1.403-2.987 3.637-2.987 5.975 0 1.265.176 2.522.523 3.738l2.241 7.842c.33 1.155.941 2.176 1.744 3.002-.33.677-.508 1.417-.508 2.184 0 2.757 2.243 5 5 5h15.484c3.176 0 6.135-1.422 8.118-3.902.866-1.082 1.498-2.306 1.878-3.638l.447-1.564c2.802 3.811 7.244 6.104 12.073 6.104 8.271 0 15-6.729 15-15 0-4.903-2.375-9.25-6.023-11.989zm-8.977-25.011c7.168 0 13 5.832 13 13 0 4.409-2.183 8.405-5.838 10.824-.72-.393-1.482-.715-2.267-.987 3.612-1.806 6.105-5.531 6.105-9.837 0-6.065-4.935-11-11-11s-11 4.935-11 11c0 4.302 2.488 8.025 6.096 9.832-.781.27-1.537.603-2.261.996-2.977-1.971-4.981-5.018-5.608-8.508 1.068-.719 1.773-1.938 1.773-3.32 0-.951-.347-1.813-.903-2.5l.437-2.621c2.271-4.246 6.643-6.879 11.466-6.879zm0 22c-4.962 0-9-4.038-9-9s4.038-9 9-9 9 4.038 9 9-4.038 9-9 9zm0 6c4.962 0 9 4.038 9 9s-4.038 9-9 9-9-4.038-9-9 4.038-9 9-9zm-11.643-.449c-.115-.098-.223-.201-.344-.292-1.067-.8-2.332-1.3-3.657-1.447l-3.413-.379c-.018-.16-.02-.32-.055-.48-.28-1.307-1.05-2.425-2.168-3.147-.08-.052-.167-.09-.249-.138 2.383-1.227 4.299-3.226 5.424-5.668h1.105c.108 0 .21-.023.316-.032.726 3.623 2.737 6.815 5.7 9.029-.98.733-1.874 1.588-2.659 2.554zm-14.086 6.699-5.045-3.604 1.357-2.002 4.995 3.568zm2.388-3.723-4.954-3.538 1.774-2.617c.558-.859 1.5-1.372 2.521-1.372.58 0 1.144.167 1.632.484.67.433 1.132 1.104 1.3 1.887.167.784.02 1.586-.418 2.263zm8.341-19.527v-1c1.103 0 2 .897 2 2s-.897 2-2 2h-.395c.249-.961.395-1.963.395-3zm-22.613-14.723c1.253-.835 2.712-1.277 4.218-1.277h12.789c1.506 0 2.965.442 4.219 1.277 2.121 1.414 3.387 3.78 3.387 6.328 0 .87-.072 1.747-.215 2.605l-.503 3.019c-.405-.138-.831-.229-1.282-.229v-1.697c0-1.777-.883-3.426-2.361-4.412-.875-.583-1.892-.891-2.942-.891l-.575.009-.291.489c-.06.103-1.534 2.502-5.831 2.502s-5.771-2.399-5.827-2.492l-.287-.508h-.583c-1.05 0-2.067.308-2.941.891-1.479.985-2.362 2.635-2.362 4.412v1.697c-.451 0-.877.092-1.281.23l-.503-3.018c-.144-.86-.216-1.736-.216-2.607 0-2.548 1.266-4.914 3.387-6.328zm-1.387 17.723c-1.103 0-2-.897-2-2s.897-2 2-2v1c0 1.037.146 2.039.395 3zm2-3v-4.697c0-1.107.55-2.134 1.471-2.748.409-.272.868-.448 1.348-.519.806.987 2.95 2.964 7.181 2.964s6.375-1.977 7.182-2.964c.48.071.939.247 1.348.519.92.613 1.47 1.641 1.47 2.748v4.697c0 5.514-4.486 10-10 10s-10-4.486-10-10zm9.046 11.952c-.079.103-.162.204-.233.314l-2.74 4.042-1.014-1.521.688-3.579c1.04.395 2.145.652 3.299.744zm-5.54 4.109 1.356 2.034-1.551 2.289-2.037-4.075zm-11.06 9.362c-.296-1.037-.446-2.11-.446-3.189 0-1.712.818-3.348 2.188-4.375.781-.586 1.707-.953 2.678-1.061l2.289-.254 2.869 5.738-1.782 2.629-1.313-3.283-1.857.743 1.815 4.539-1.714 2.529 1.655 1.122 6.275-9.258 5.087 3.633-6.217 9.694c-.952 1.484-2.572 2.37-4.335 2.37-2.287 0-4.323-1.536-4.951-3.735zm12.554 11.146v5.431h-2v-3.84c.752-.4 1.428-.939 2-1.591zm-9 2.431c0-.321.05-.634.147-.932 1.046.59 2.238.932 3.492.932.464 0 .917-.058 1.361-.143v3.143h-2c-1.654 0-3-1.346-3-3zm26.557-3.089c-.308 1.076-.818 2.064-1.517 2.938-1.602 2.003-3.991 3.151-6.556 3.151h-7.484v-6h11v-2h-1.572l3.512-9.658-1.88-.684-3.761 10.342h-7.546l10.442-16.283c.262-.405.438-.843.573-1.292l3.366.374c.971.107 1.896.474 2.678 1.06 1.37 1.027 2.188 2.663 2.188 4.375 0 1.079-.15 2.152-.446 3.188zm14.443 3.089c-4.735 0-9.04-2.544-11.343-6.659l.861-3.012c1.414 4.442 5.577 7.671 10.482 7.671 6.065 0 11-4.935 11-11s-4.935-11-11-11c-3.921 0-7.36 2.068-9.308 5.165-.216-.742-.538-1.449-.967-2.09 2.456-3.18 6.237-5.075 10.275-5.075 7.168 0 13 5.832 13 13s-5.832 13-13 13z"/><path d="m49 16.184v-2.184h-2v2h-2v3c0 1.654 1.346 3 3 3 .551 0 1 .449 1 1v1h-1c-.551 0-1-.449-1-1v-1h-2v1c0 1.302.839 2.402 2 2.816v2.184h2v-2h2v-3c0-1.654-1.346-3-3-3-.551 0-1-.449-1-1v-1h1c.551 0 1 .449 1 1v1h2v-1c0-1.302-.839-2.402-2-2.816z"/></g></g></svg>