<svg id="filled_outline" height="512" viewBox="0 0 512 512" width="512" xmlns="http://www.w3.org/2000/svg" data-name="filled outline"><path d="m472 382.85986a79.994 79.994 0 0 1 -23.43994 56.58008l-40.56006 40.56006-40 8h-224l-40-8-40.56006-40.56006a80.06214 80.06214 0 0 1 -22.09985-71.18994 81.022 81.022 0 0 1 3.99-14.12012l24.63991-64.06006a64.007 64.007 0 0 1 35.97-36.43994l60.73-24.29 33.33-13.33988h112l46.65991 18.66992 47.40015 18.96a64.007 64.007 0 0 1 35.97 36.43994l24.63989 64.06006a80.18122 80.18122 0 0 1 5.33005 28.72994z" fill="#f07f2f"/><path d="m358.66 234.67-30.66 61.33h-128l-33.33-66.66 33.33-13.34h112z" fill="#e5e7e9"/><path d="m144 392h224v96h-224z" fill="#00b55b"/><path d="m224 392h64v96h-64z" fill="#eda600"/><path d="m279.228 232v40l-15.228 24h-16l-16-24v-40z" fill="#009ff5"/><path d="m184 80v88.00023a71.99976 71.99976 0 0 0 71.99977 71.99977h.00014a71.99977 71.99977 0 0 0 71.99977-72.00009l-.00036-87.99991-23.99932-32h-88z" fill="#f5c99d"/><path d="m328 88h-68a36 36 0 0 1 -36-36v-4a24 24 0 0 1 24-24h24a56 56 0 0 1 56 56z" fill="#b1792c"/><path d="m184 88v-32a24 24 0 0 1 24-24 16 16 0 0 1 16 16v9.37a30.63 30.63 0 0 1 -30.63 30.63z" fill="#956625"/><path d="m272 296a32 32 0 0 0 32-32v-16h64v16a32 32 0 0 1 -32 32z" fill="#00b55b"/><path d="m144 296h224v96h-224z" fill="#02c26a"/><path d="m224 296h64v96h-64z" fill="#f6bb00"/><path d="m132.35426 426.91143 39.162-9.79049a8.16287 8.16287 0 0 1 7.75181 2.14712 8.16286 8.16286 0 0 1 1.0199 10.3l-12.28797 18.43194 46.07772 13.16506a13.68065 13.68065 0 0 1 9.92228 13.15427 13.68064 13.68064 0 0 1 -13.68065 13.68067h-66.31935l-40-8 4.5508-27.30477a32 32 0 0 1 23.80346-25.7838z" fill="#f5c99d"/><path d="m379.64574 426.91143-39.162-9.79049a8.16287 8.16287 0 0 0 -7.75181 2.14712 8.16286 8.16286 0 0 0 -1.0199 10.3l12.28797 18.43194-46.07772 13.16506a13.68065 13.68065 0 0 0 -9.92228 13.15427 13.68064 13.68064 0 0 0 13.68065 13.68067h66.31935l40-8-4.5508-27.30477a32 32 0 0 0 -23.80346-25.7838z" fill="#f5c99d"/><path d="m449.49512 287.20117a72.21915 72.21915 0 0 0 -40.46094-41.0039l-86.05835-34.4231a79.43188 79.43188 0 0 0 13.02368-43.77417l.00049-88a64.07239 64.07239 0 0 0 -64-64h-24a31.97035 31.97035 0 0 0 -25.59546 12.81665 23.87455 23.87455 0 0 0 -14.40454-4.81665 32.03635 32.03635 0 0 0 -32 32v112a79.51182 79.51182 0 0 0 13.07544 43.75366l-86.10962 34.44361a72.21915 72.21915 0 0 0 -40.46094 41.0039l-24.63818 64.06055a88.014 88.014 0 0 0 19.91211 93.831l40.56445 40.56446.00134-.00147a7.96046 7.96046 0 0 0 4.08655 2.189l40 8a7.98421 7.98421 0 0 0 1.56885.15529h224a7.98421 7.98421 0 0 0 1.56885-.15527l40-8a7.96046 7.96046 0 0 0 4.08655-2.189l.00134.00147 40.56445-40.56446a88.014 88.014 0 0 0 19.91211-93.831zm-107.07129 122.15918a16.233 16.233 0 0 0 -15.34815 4.251 16.007 16.007 0 0 0 -1.95727 2.38865h-29.11841v-16h64v13.75391zm-117.094-330.31714a43.93638 43.93638 0 0 0 34.67017 16.95679h59.99951v72a63.99976 63.99976 0 1 1 -127.99951 0v-72h1.37012a38.61854 38.61854 0 0 0 31.95971-16.95679zm70.67017 288.95679h64v16h-64zm64-16h-64v-16h64zm-80 32h-48v-80h48zm-8.772-114.32422-11.62644 18.32422h-7.32031l-12.28125-18.42188v-23.188a80.50406 80.50406 0 0 0 31.228.16015zm-47.228-28.37549v30.69971a7.99836 7.99836 0 0 0 1.34375 4.4375l7.70825 11.5625h-28.10766l-27.234-54.468 21.96252-8.78491a80.29834 80.29834 0 0 0 24.32714 16.5532zm-8 62.69971v16h-48v16h48v16h-48v16h48v16h-64v-80zm-64 96h64v16h-29.11792a16.06111 16.06111 0 0 0 -1.95728-2.38965 16.23979 16.23979 0 0 0 -15.34912-4.25l-17.57568 4.39356zm34.94531 34.00488a16.00205 16.00205 0 0 0 1.12183-2.00488h27.93286v16h-18.87866l-16.3855-4.68164zm45.05469-34.00488h48v80h-48zm82.87891 48h-18.87891v-16h27.93323a16.03888 16.03888 0 0 0 1.12243 2.00586l6.2085 9.3125zm-18.87891-128v-16h64v16zm64-56a24.02718 24.02718 0 0 1 -24 24h-32.022a39.7896 39.7896 0 0 0 8.022-24v-8h48zm-56-24a8.00008 8.00008 0 0 0 -8 8v16a24.04081 24.04081 0 0 1 -16.73438 22.873l6.71729-10.58692a7.9977 7.9977 0 0 0 1.24509-4.28608v-30.314a79.8726 79.8726 0 0 0 25.13684-16.92383l38.09488 15.23783zm-56-208h24a48.054 48.054 0 0 1 48 48h-60a28.03146 28.03146 0 0 1 -28-28v-4a16.01833 16.01833 0 0 1 16-16zm-40 8a8.00917 8.00917 0 0 1 8 8v9.37012a22.65537 22.65537 0 0 1 -22.62988 22.62988h-1.37012v-24a16.01833 16.01833 0 0 1 16-16zm-107.34033 411.37988-1.99512 11.97071-29.57226-29.57227a72.01208 72.01208 0 0 1 -16.292-76.77246l24.63819-64.06055a56.17256 56.17256 0 0 1 31.46972-31.89258l53.8949-21.55786 24.25256 48.50513h-43.05566a8.00008 8.00008 0 0 0 -8 8v121.75391l-2.1853.54638-9.78394-14.67629a23.929 23.929 0 0 1 -4.03076-13.31248v-30.31152h-16v30.31152a39.87335 39.87335 0 0 0 6.71826 22.1875l7.85352 11.78028a39.96565 39.96565 0 0 0 -17.91211 27.10058zm44.13233 28.62012-31.62744-6.3252 3.27734-19.66406a23.99164 23.99164 0 0 1 17.853-19.33886l39.16113-9.79a.16945.16945 0 0 1 .15577.04394.16387.16387 0 0 1 .02.20508l-12.28805 18.4316a8.00015 8.00015 0 0 0 4.4585 12.12988l46.07812 13.165a5.68063 5.68063 0 0 1 -1.56103 11.14262zm222.416 0h-65.52734a5.68055 5.68055 0 0 1 -1.56054-11.14258l46.07763-13.165a8.00015 8.00015 0 0 0 4.4585-12.12988l-12.28711-18.43066a.16453.16453 0 0 1 .01953-.207.161.161 0 0 1 .11524-.04785.179.179 0 0 1 .03955.00489l39.16162 9.79a23.99164 23.99164 0 0 1 17.853 19.33886l3.27734 19.66406zm75.6997-46.22168-29.57226 29.57227-1.99512-11.97071a39.96565 39.96565 0 0 0 -17.91211-27.10058l7.854-11.78028a39.87677 39.87677 0 0 0 6.71779-22.1875v-38.31152h-16v38.31152a23.929 23.929 0 0 1 -4.03076 13.3125l-9.78394 14.67627-2.1853-.54638v-121.75391a8.00008 8.00008 0 0 0 -8-8h-.022a39.7896 39.7896 0 0 0 8.022-24v-13.78394l27.0918 10.83667a56.17256 56.17256 0 0 1 31.46972 31.89258l24.63819 64.06055a72.01208 72.01208 0 0 1 -16.292 76.77246z"/><path d="m208 112h32v16h-32z"/><path d="m240 200h8a24.02718 24.02718 0 0 0 24-24v-16h-16v16a8.00917 8.00917 0 0 1 -8 8h-8z"/><circle cx="224" cy="144" r="8"/><path d="m272 112h32v16h-32z"/><circle cx="288" cy="144" r="8"/></svg>