<svg id="Layer_5" enable-background="new 0 0 64 64" height="512" viewBox="0 0 64 64" width="512" xmlns="http://www.w3.org/2000/svg"><g><g><path d="m33.333 13.904h25.042v8.485h-25.042z" fill="#f0bc5e" transform="matrix(.707 -.707 .707 .707 .599 37.738)"/></g><g><g><path d="m30 55c-1.654 0-3-1.346-3-3s1.346-3 3-3 3 1.346 3 3-1.346 3-3 3z" fill="#f0bc5e"/></g></g><g><path d="m63 6.243c0-2.891-2.352-5.243-5.243-5.243-1.4 0-2.717.545-3.707 1.536l-11.05 11.05v-4.586h-42v54h42v-34.586l18.464-18.464c.991-.991 1.536-2.307 1.536-3.707zm-25.293 21.464 13.293-13.293 1.586 1.586-13.126 13.126-5.511 1.837c-.453.148-.949-.209-.949-.684 0-.078.013-.154.037-.228l1.837-5.511 13.126-13.126 1.586 1.586-13.293 13.293zm-14.707 15.293v-12h8.109c.308 1.111 1.295 1.933 2.489 1.988l-5.598 5.598-2.293-2.293-1.414 1.414 3.707 3.707 7.707-7.707-.916-.916 2.209-.737v10.946zm18 18h-38v-50h38v4.586l-7.874 7.874-1.847 5.54h-10.279v16h8v4.184c.314-.112.648-.184 1-.184s.686.072 1 .184v-4.184h8v-13.613l1.54-.513.46-.46zm19.05-52.464-6.05 6.05-4.586-4.586 6.05-6.05c.613-.613 1.427-.95 2.293-.95 1.788 0 3.243 1.455 3.243 3.243 0 .866-.337 1.68-.95 2.293z"/><path d="m27 52c0-.352.072-.686.184-1h-12.184v-4h-4v-6h4v-10h-4v-6h4v-4h4v4h10v-10h-10v4h-4v-4h-10v10h4v6h-4v10h4v6h-4v10h10v-4h12.184c-.112-.314-.184-.648-.184-1zm-6-35h6v6h-6zm-14 0h6v6h-6zm0 16h6v6h-6zm6 22h-6v-6h6z"/></g></g></svg>